# https://github.com/mikedh/trimesh
mtllib material.mtl

o W1_p0_0.00
usemtl W1_p0_0.00
v 0.00000000 0.00000000 -9.60000000
v 3.60000000 0.00000000 -9.60000000
v 3.60000000 1.10000000 -9.60000000
v 0.00000000 1.10000000 -9.60000000
f 1 2 3
f 1 3 4

o W1_p0_1.10
usemtl W1_p0_1.10
v 0.00000000 1.10000000 -9.60000000
v 3.60000000 1.10000000 -9.60000000
v 3.60000000 1.20000000 -9.60000000
v 0.00000000 1.20000000 -9.60000000
f 5 6 7
f 5 7 8

o W1_p1_1.20
usemtl W1_p0_1.10
v 0.00000000 1.20000000 -9.60000000
v 3.60000000 1.20000000 -9.60000000
v 3.60000000 2.10000000 -9.60000000
v 0.00000000 2.10000000 -9.60000000
f 9 10 11
f 9 11 12

o W1_p1_2.10
usemtl W1_p1_2.10
v 0.00000000 2.10000000 -9.60000000
v 3.60000000 2.10000000 -9.60000000
v 3.60000000 2.40000000 -9.60000000
v 0.00000000 2.40000000 -9.60000000
f 13 14 15
f 13 15 16

o W1_p2_2.40
usemtl W1_p1_2.10
v 0.00000000 2.40000000 -9.60000000
v 3.60000000 2.40000000 -9.60000000
v 3.60000000 3.60000000 -9.60000000
v 0.00000000 3.60000000 -9.60000000
f 17 18 19
f 17 19 20

o W2_p0_0.00
usemtl W1_p0_0.00
v 3.60000000 0.00000000 -9.60000000
v 4.60000000 0.00000000 -9.20000000
v 4.60000000 1.10000000 -9.20000000
v 3.60000000 1.10000000 -9.60000000
f 21 22 23
f 21 23 24

o W2_p0_1.10
usemtl W1_p0_1.10
v 3.60000000 1.10000000 -9.60000000
v 4.60000000 1.10000000 -9.20000000
v 4.60000000 1.20000000 -9.20000000
v 3.60000000 1.20000000 -9.60000000
f 25 26 27
f 25 27 28

o W2_p1_1.20
usemtl W1_p0_1.10
v 3.60000000 1.20000000 -9.60000000
v 4.60000000 1.20000000 -9.20000000
v 4.60000000 2.10000000 -9.20000000
v 3.60000000 2.10000000 -9.60000000
f 29 30 31
f 29 31 32

o W2_p1_2.10
usemtl W1_p1_2.10
v 3.60000000 2.10000000 -9.60000000
v 4.60000000 2.10000000 -9.20000000
v 4.60000000 2.40000000 -9.20000000
v 3.60000000 2.40000000 -9.60000000
f 33 34 35
f 33 35 36

o W2_p2_2.40
usemtl W1_p1_2.10
v 3.60000000 2.40000000 -9.60000000
v 4.60000000 2.40000000 -9.20000000
v 4.60000000 3.60000000 -9.20000000
v 3.60000000 3.60000000 -9.60000000
f 37 38 39
f 37 39 40

o W3_p0_0.00
usemtl W1_p0_0.00
v 4.60000000 0.00000000 -9.20000000
v 5.30000000 0.00000000 -9.20000000
v 5.30000000 1.10000000 -9.20000000
v 4.60000000 1.10000000 -9.20000000
f 41 42 43
f 41 43 44

o W3_p0_1.10
usemtl W1_p0_1.10
v 4.60000000 1.10000000 -9.20000000
v 5.30000000 1.10000000 -9.20000000
v 5.30000000 1.20000000 -9.20000000
v 4.60000000 1.20000000 -9.20000000
f 45 46 47
f 45 47 48

o W3_p1_1.20
usemtl W1_p0_1.10
v 4.60000000 1.20000000 -9.20000000
v 5.30000000 1.20000000 -9.20000000
v 5.30000000 2.10000000 -9.20000000
v 4.60000000 2.10000000 -9.20000000
f 49 50 51
f 49 51 52

o W3_p1_2.10
usemtl W1_p1_2.10
v 4.60000000 2.10000000 -9.20000000
v 5.30000000 2.10000000 -9.20000000
v 5.30000000 2.40000000 -9.20000000
v 4.60000000 2.40000000 -9.20000000
f 53 54 55
f 53 55 56

o W3_p2_2.40
usemtl W1_p1_2.10
v 4.60000000 2.40000000 -9.20000000
v 5.30000000 2.40000000 -9.20000000
v 5.30000000 3.60000000 -9.20000000
v 4.60000000 3.60000000 -9.20000000
f 57 58 59
f 57 59 60

o W4_p0_0.00
usemtl W1_p0_0.00
v 5.30000000 0.00000000 -9.20000000
v 7.70000000 0.00000000 -9.20000000
v 7.70000000 1.10000000 -9.20000000
v 5.30000000 1.10000000 -9.20000000
f 61 62 63
f 61 63 64

o W4_p0_1.10
usemtl W1_p0_1.10
v 5.30000000 1.10000000 -9.20000000
v 7.70000000 1.10000000 -9.20000000
v 7.70000000 1.20000000 -9.20000000
v 5.30000000 1.20000000 -9.20000000
f 65 66 67
f 65 67 68

o W4_p1_1.20
usemtl W1_p0_1.10
v 5.30000000 1.20000000 -9.20000000
v 7.70000000 1.20000000 -9.20000000
v 7.70000000 2.10000000 -9.20000000
v 5.30000000 2.10000000 -9.20000000
f 69 70 71
f 69 71 72

o W4_p1_2.10
usemtl W1_p1_2.10
v 5.30000000 2.10000000 -9.20000000
v 7.70000000 2.10000000 -9.20000000
v 7.70000000 2.40000000 -9.20000000
v 5.30000000 2.40000000 -9.20000000
f 73 74 75
f 73 75 76

o W4_p2_2.40
usemtl W1_p1_2.10
v 5.30000000 2.40000000 -9.20000000
v 7.70000000 2.40000000 -9.20000000
v 7.70000000 3.60000000 -9.20000000
v 5.30000000 3.60000000 -9.20000000
f 77 78 79
f 77 79 80

o W5_p0_0.00
usemtl W1_p0_0.00
v 7.70000000 0.00000000 -9.20000000
v 8.30000000 0.00000000 -9.20000000
v 8.30000000 1.10000000 -9.20000000
v 7.70000000 1.10000000 -9.20000000
f 81 82 83
f 81 83 84

o W5_p0_1.10
usemtl W1_p0_1.10
v 7.70000000 1.10000000 -9.20000000
v 8.30000000 1.10000000 -9.20000000
v 8.30000000 1.20000000 -9.20000000
v 7.70000000 1.20000000 -9.20000000
f 85 86 87
f 85 87 88

o W5_p1_1.20
usemtl W1_p0_1.10
v 7.70000000 1.20000000 -9.20000000
v 8.30000000 1.20000000 -9.20000000
v 8.30000000 2.10000000 -9.20000000
v 7.70000000 2.10000000 -9.20000000
f 89 90 91
f 89 91 92

o W5_p1_2.10
usemtl W1_p1_2.10
v 7.70000000 2.10000000 -9.20000000
v 8.30000000 2.10000000 -9.20000000
v 8.30000000 2.40000000 -9.20000000
v 7.70000000 2.40000000 -9.20000000
f 93 94 95
f 93 95 96

o W5_p2_2.40
usemtl W1_p1_2.10
v 7.70000000 2.40000000 -9.20000000
v 8.30000000 2.40000000 -9.20000000
v 8.30000000 3.60000000 -9.20000000
v 7.70000000 3.60000000 -9.20000000
f 97 98 99
f 97 99 100

o W6_p0_0.00
usemtl W1_p0_0.00
v 8.30000000 0.00000000 -9.20000000
v 9.20000000 0.00000000 -9.60000000
v 9.20000000 1.10000000 -9.60000000
v 8.30000000 1.10000000 -9.20000000
f 101 102 103
f 101 103 104

o W6_p0_1.10
usemtl W1_p0_1.10
v 8.30000000 1.10000000 -9.20000000
v 9.20000000 1.10000000 -9.60000000
v 9.20000000 1.20000000 -9.60000000
v 8.30000000 1.20000000 -9.20000000
f 105 106 107
f 105 107 108

o W6_p1_1.20
usemtl W1_p0_1.10
v 8.30000000 1.20000000 -9.20000000
v 9.20000000 1.20000000 -9.60000000
v 9.20000000 2.10000000 -9.60000000
v 8.30000000 2.10000000 -9.20000000
f 109 110 111
f 109 111 112

o W6_p1_2.10
usemtl W1_p1_2.10
v 8.30000000 2.10000000 -9.20000000
v 9.20000000 2.10000000 -9.60000000
v 9.20000000 2.40000000 -9.60000000
v 8.30000000 2.40000000 -9.20000000
f 113 114 115
f 113 115 116

o W6_p2_2.40
usemtl W1_p1_2.10
v 8.30000000 2.40000000 -9.20000000
v 9.20000000 2.40000000 -9.60000000
v 9.20000000 3.60000000 -9.60000000
v 8.30000000 3.60000000 -9.20000000
f 117 118 119
f 117 119 120

o W7_p0_0.00
usemtl W1_p0_0.00
v 9.20000000 0.00000000 -9.60000000
v 12.60000000 0.00000000 -9.60000000
v 12.60000000 1.10000000 -9.60000000
v 9.20000000 1.10000000 -9.60000000
f 121 122 123
f 121 123 124

o W7_p0_1.10
usemtl W1_p0_1.10
v 9.20000000 1.10000000 -9.60000000
v 12.60000000 1.10000000 -9.60000000
v 12.60000000 1.20000000 -9.60000000
v 9.20000000 1.20000000 -9.60000000
f 125 126 127
f 125 127 128

o W7_p1_1.20
usemtl W1_p0_1.10
v 9.20000000 1.20000000 -9.60000000
v 12.60000000 1.20000000 -9.60000000
v 12.60000000 2.10000000 -9.60000000
v 9.20000000 2.10000000 -9.60000000
f 129 130 131
f 129 131 132

o W7_p1_2.10
usemtl W1_p1_2.10
v 9.20000000 2.10000000 -9.60000000
v 12.60000000 2.10000000 -9.60000000
v 12.60000000 2.40000000 -9.60000000
v 9.20000000 2.40000000 -9.60000000
f 133 134 135
f 133 135 136

o W7_p2_2.40
usemtl W1_p1_2.10
v 9.20000000 2.40000000 -9.60000000
v 12.60000000 2.40000000 -9.60000000
v 12.60000000 3.60000000 -9.60000000
v 9.20000000 3.60000000 -9.60000000
f 137 138 139
f 137 139 140

o W8_p0_0.00
usemtl W1_p0_0.00
v 12.60000000 0.00000000 -9.60000000
v 12.60000000 0.00000000 -7.90000000
v 12.60000000 1.10000000 -7.90000000
v 12.60000000 1.10000000 -9.60000000
f 141 142 143
f 141 143 144

o W8_p0_1.10
usemtl W1_p0_1.10
v 12.60000000 1.10000000 -9.60000000
v 12.60000000 1.10000000 -7.90000000
v 12.60000000 1.20000000 -7.90000000
v 12.60000000 1.20000000 -9.60000000
f 145 146 147
f 145 147 148

o W8_p1_1.20
usemtl W1_p0_1.10
v 12.60000000 1.20000000 -9.60000000
v 12.60000000 1.20000000 -7.90000000
v 12.27242679 2.10000000 -7.90000000
v 12.27242679 2.10000000 -9.60000000
f 149 150 151
f 149 151 152

o W8_p1_2.10
usemtl W1_p1_2.10
v 12.27242679 2.10000000 -9.60000000
v 12.27242679 2.10000000 -7.90000000
v 12.16323572 2.40000000 -7.90000000
v 12.16323572 2.40000000 -9.60000000
f 153 154 155
f 153 155 156

o W8_p2_2.40
usemtl W1_p1_2.10
v 12.16323572 2.40000000 -9.60000000
v 12.16323572 2.40000000 -7.90000000
v 11.72647144 3.60000000 -7.90000000
v 11.72647144 3.60000000 -9.60000000
f 157 158 159
f 157 159 160

o W8_cap
usemtl W8_cap
v 12.60000000 3.60000000 -9.60000000
v 12.60000000 3.60000000 -7.90000000
v 11.72647144 3.60000000 -7.90000000
v 11.72647144 3.60000000 -9.60000000
f 161 162 163
f 161 163 164

o W8_end0
usemtl W8_cap
v 12.60000000 3.60000000 -9.59500000
v 12.60000000 0.00000000 -9.59500000
v 12.60000000 1.20000000 -9.59500000
v 12.16323572 2.40000000 -9.59500000
v 11.72647144 3.60000000 -9.59500000
f 165 166 167
f 165 167 168
f 165 168 169

o W8_end1
usemtl W8_cap
v 12.60000000 3.60000000 -7.90500000
v 12.60000000 0.00000000 -7.90500000
v 12.60000000 1.20000000 -7.90500000
v 12.16323572 2.40000000 -7.90500000
v 11.72647144 3.60000000 -7.90500000
f 170 171 172
f 170 172 173
f 170 173 174

o W9_p0_0.00
usemtl W1_p0_0.00
v 12.60000000 0.00000000 -7.90000000
v 11.80000000 0.00000000 -7.90000000
v 11.80000000 1.10000000 -7.90000000
v 12.60000000 1.10000000 -7.90000000
f 175 176 177
f 175 177 178

o W9_p0_1.10
usemtl W1_p0_1.10
v 12.60000000 1.10000000 -7.90000000
v 11.80000000 1.10000000 -7.90000000
v 11.80000000 1.20000000 -7.90000000
v 12.60000000 1.20000000 -7.90000000
f 179 180 181
f 179 181 182

o W9_p1_1.20
usemtl W1_p0_1.10
v 12.60000000 1.20000000 -7.90000000
v 11.80000000 1.20000000 -7.90000000
v 11.80000000 2.10000000 -7.90000000
v 12.60000000 2.10000000 -7.90000000
f 183 184 185
f 183 185 186

o W9_p1_2.10
usemtl W1_p1_2.10
v 12.60000000 2.10000000 -7.90000000
v 11.80000000 2.10000000 -7.90000000
v 11.80000000 2.40000000 -7.90000000
v 12.60000000 2.40000000 -7.90000000
f 187 188 189
f 187 189 190

o W9_p2_2.40
usemtl W1_p1_2.10
v 12.60000000 2.40000000 -7.90000000
v 11.80000000 2.40000000 -7.90000000
v 11.80000000 3.60000000 -7.90000000
v 12.60000000 3.60000000 -7.90000000
f 191 192 193
f 191 193 194

o W10_p0_0.00
usemtl W1_p0_0.00
v 11.80000000 0.00000000 -7.90000000
v 11.80000000 0.00000000 -4.80000000
v 11.80000000 1.10000000 -4.80000000
v 11.80000000 1.10000000 -7.90000000
f 195 196 197
f 195 197 198

o W10_p0_1.10
usemtl W1_p0_1.10
v 11.80000000 1.10000000 -7.90000000
v 11.80000000 1.10000000 -4.80000000
v 11.80000000 1.20000000 -4.80000000
v 11.80000000 1.20000000 -7.90000000
f 199 200 201
f 199 201 202

o W10_p1_1.20
usemtl W1_p0_1.10
v 11.80000000 1.20000000 -7.90000000
v 11.80000000 1.20000000 -4.80000000
v 11.47242679 2.10000000 -4.80000000
v 11.47242679 2.10000000 -7.90000000
f 203 204 205
f 203 205 206

o W10_p1_2.10
usemtl W1_p1_2.10
v 11.47242679 2.10000000 -7.90000000
v 11.47242679 2.10000000 -4.80000000
v 11.36323572 2.40000000 -4.80000000
v 11.36323572 2.40000000 -7.90000000
f 207 208 209
f 207 209 210

o W10_p2_2.40
usemtl W1_p1_2.10
v 11.36323572 2.40000000 -7.90000000
v 11.36323572 2.40000000 -4.80000000
v 10.92647144 3.60000000 -4.80000000
v 10.92647144 3.60000000 -7.90000000
f 211 212 213
f 211 213 214

o W10_cap
usemtl W8_cap
v 11.80000000 3.60000000 -7.90000000
v 11.80000000 3.60000000 -4.80000000
v 10.92647144 3.60000000 -4.80000000
v 10.92647144 3.60000000 -7.90000000
f 215 216 217
f 215 217 218

o W10_end0
usemtl W8_cap
v 11.80000000 3.60000000 -7.89500000
v 11.80000000 0.00000000 -7.89500000
v 11.80000000 1.20000000 -7.89500000
v 11.36323572 2.40000000 -7.89500000
v 10.92647144 3.60000000 -7.89500000
f 219 220 221
f 219 221 222
f 219 222 223

o W10_end1
usemtl W8_cap
v 11.80000000 3.60000000 -4.80500000
v 11.80000000 0.00000000 -4.80500000
v 11.80000000 1.20000000 -4.80500000
v 11.36323572 2.40000000 -4.80500000
v 10.92647144 3.60000000 -4.80500000
f 224 225 226
f 224 226 227
f 224 227 228

o W11_p0_0.00
usemtl W1_p0_0.00
v 11.80000000 0.00000000 -4.80000000
v 12.60000000 0.00000000 -4.80000000
v 12.60000000 1.10000000 -4.80000000
v 11.80000000 1.10000000 -4.80000000
f 229 230 231
f 229 231 232

o W11_p0_1.10
usemtl W1_p0_1.10
v 11.80000000 1.10000000 -4.80000000
v 12.60000000 1.10000000 -4.80000000
v 12.60000000 1.20000000 -4.80000000
v 11.80000000 1.20000000 -4.80000000
f 233 234 235
f 233 235 236

o W11_p1_1.20
usemtl W1_p0_1.10
v 11.80000000 1.20000000 -4.80000000
v 12.60000000 1.20000000 -4.80000000
v 12.60000000 2.10000000 -4.80000000
v 11.80000000 2.10000000 -4.80000000
f 237 238 239
f 237 239 240

o W11_p1_2.10
usemtl W1_p1_2.10
v 11.80000000 2.10000000 -4.80000000
v 12.60000000 2.10000000 -4.80000000
v 12.60000000 2.40000000 -4.80000000
v 11.80000000 2.40000000 -4.80000000
f 241 242 243
f 241 243 244

o W11_p2_2.40
usemtl W1_p1_2.10
v 11.80000000 2.40000000 -4.80000000
v 12.60000000 2.40000000 -4.80000000
v 12.60000000 3.60000000 -4.80000000
v 11.80000000 3.60000000 -4.80000000
f 245 246 247
f 245 247 248

o W12_p0_0.00
usemtl W1_p0_0.00
v 12.60000000 0.00000000 -4.80000000
v 12.60000000 0.00000000 -2.40000000
v 12.60000000 1.10000000 -2.40000000
v 12.60000000 1.10000000 -4.80000000
f 249 250 251
f 249 251 252

o W12_p0_1.10
usemtl W1_p0_1.10
v 12.60000000 1.10000000 -4.80000000
v 12.60000000 1.10000000 -2.40000000
v 12.60000000 1.20000000 -2.40000000
v 12.60000000 1.20000000 -4.80000000
f 253 254 255
f 253 255 256

o W12_p1_1.20
usemtl W1_p0_1.10
v 12.60000000 1.20000000 -4.80000000
v 12.60000000 1.20000000 -2.40000000
v 12.60000000 2.10000000 -2.40000000
v 12.60000000 2.10000000 -4.80000000
f 257 258 259
f 257 259 260

o W12_p1_2.10
usemtl W1_p1_2.10
v 12.60000000 2.10000000 -4.80000000
v 12.60000000 2.10000000 -2.40000000
v 12.60000000 2.40000000 -2.40000000
v 12.60000000 2.40000000 -4.80000000
f 261 262 263
f 261 263 264

o W12_p2_2.40
usemtl W1_p1_2.10
v 12.60000000 2.40000000 -4.80000000
v 12.60000000 2.40000000 -2.40000000
v 12.60000000 3.60000000 -2.40000000
v 12.60000000 3.60000000 -4.80000000
f 265 266 267
f 265 267 268

o W13_p0_0.00
usemtl W1_p0_0.00
v 12.60000000 0.00000000 -2.40000000
v 10.60000000 0.00000000 -2.40000000
v 10.60000000 1.10000000 -2.40000000
v 12.60000000 1.10000000 -2.40000000
f 269 270 271
f 269 271 272

o W13_p0_1.10
usemtl W1_p0_1.10
v 12.60000000 1.10000000 -2.40000000
v 10.60000000 1.10000000 -2.40000000
v 10.60000000 1.20000000 -2.40000000
v 12.60000000 1.20000000 -2.40000000
f 273 274 275
f 273 275 276

o W13_p1_1.20
usemtl W1_p0_1.10
v 12.60000000 1.20000000 -2.40000000
v 10.60000000 1.20000000 -2.40000000
v 10.60000000 2.10000000 -2.40000000
v 12.60000000 2.10000000 -2.40000000
f 277 278 279
f 277 279 280

o W13_p1_2.10
usemtl W1_p1_2.10
v 12.60000000 2.10000000 -2.40000000
v 10.60000000 2.10000000 -2.40000000
v 10.60000000 2.40000000 -2.40000000
v 12.60000000 2.40000000 -2.40000000
f 281 282 283
f 281 283 284

o W13_p2_2.40
usemtl W1_p1_2.10
v 12.60000000 2.40000000 -2.40000000
v 10.60000000 2.40000000 -2.40000000
v 10.60000000 3.60000000 -2.40000000
v 12.60000000 3.60000000 -2.40000000
f 285 286 287
f 285 287 288

o W15_p0_0.00
usemtl W1_p0_0.00
v 5.30000000 0.00000000 0.00000000
v 0.50000000 0.00000000 0.00000000
v 0.50000000 1.10000000 0.00000000
v 5.30000000 1.10000000 0.00000000
f 289 290 291
f 289 291 292

o W15_p0_1.10
usemtl W1_p0_1.10
v 5.30000000 1.10000000 0.00000000
v 0.50000000 1.10000000 0.00000000
v 0.50000000 1.20000000 0.00000000
v 5.30000000 1.20000000 0.00000000
f 293 294 295
f 293 295 296

o W15_p1_1.20
usemtl W1_p0_1.10
v 5.30000000 1.20000000 0.00000000
v 0.50000000 1.20000000 0.00000000
v 0.50000000 2.10000000 -0.90000000
v 5.30000000 2.10000000 -0.90000000
f 297 298 299
f 297 299 300

o W15_p1_2.10
usemtl W1_p1_2.10
v 5.30000000 2.10000000 -0.90000000
v 0.50000000 2.10000000 -0.90000000
v 0.50000000 2.40000000 -1.20000000
v 5.30000000 2.40000000 -1.20000000
f 301 302 303
f 301 303 304

o W15_p2_2.40
usemtl W1_p1_2.10
v 5.30000000 2.40000000 -1.20000000
v 0.50000000 2.40000000 -1.20000000
v 0.50000000 3.60000000 -2.40000000
v 5.30000000 3.60000000 -2.40000000
f 305 306 307
f 305 307 308

o W15_cap
usemtl W8_cap
v 5.30000000 3.60000000 0.00000000
v 0.50000000 3.60000000 0.00000000
v 0.50000000 3.60000000 -2.40000000
v 5.30000000 3.60000000 -2.40000000
f 309 310 311
f 309 311 312

o W15_end0
usemtl W8_cap
v 5.29500000 3.60000000 0.00000000
v 5.29500000 0.00000000 0.00000000
v 5.29500000 1.20000000 0.00000000
v 5.29500000 2.40000000 -1.20000000
v 5.29500000 3.60000000 -2.40000000
f 313 314 315
f 313 315 316
f 313 316 317

o W15_end1
usemtl W8_cap
v 0.50500000 3.60000000 0.00000000
v 0.50500000 0.00000000 0.00000000
v 0.50500000 1.20000000 0.00000000
v 0.50500000 2.40000000 -1.20000000
v 0.50500000 3.60000000 -2.40000000
f 318 319 320
f 318 320 321
f 318 321 322

o W16-cave_p0_0.00
usemtl W1_p0_0.00
v 0.50000000 0.00000000 0.00000000
v 0.50000000 0.00000000 -2.40000000
v 0.50000000 1.10000000 -2.40000000
v 0.50000000 1.10000000 0.00000000
f 323 324 325
f 323 325 326

o W16-cave_p0_1.10
usemtl W1_p0_1.10
v 0.50000000 1.10000000 0.00000000
v 0.50000000 1.10000000 -2.40000000
v 0.50000000 1.20000000 -2.40000000
v 0.50000000 1.20000000 0.00000000
f 327 328 329
f 327 329 330

o W16-cave_p1_1.20
usemtl W1_p0_1.10
v 0.50000000 1.20000000 0.00000000
v 0.50000000 1.20000000 -2.40000000
v 0.50000000 2.10000000 -2.40000000
v 0.50000000 2.10000000 0.00000000
f 331 332 333
f 331 333 334

o W16-cave_p1_2.10
usemtl W1_p1_2.10
v 0.50000000 2.10000000 0.00000000
v 0.50000000 2.10000000 -2.40000000
v 0.50000000 2.40000000 -2.40000000
v 0.50000000 2.40000000 0.00000000
f 335 336 337
f 335 337 338

o W16-cave_p2_2.40
usemtl W1_p1_2.10
v 0.50000000 2.40000000 0.00000000
v 0.50000000 2.40000000 -2.40000000
v 0.50000000 3.60000000 -2.40000000
v 0.50000000 3.60000000 0.00000000
f 339 340 341
f 339 341 342

o W16_p0_0.00
usemtl W1_p0_0.00
v 0.50000000 0.00000000 -2.40000000
v 0.50000000 0.00000000 -6.50000000
v 0.34736239 1.10000000 -6.50000000
v 0.34736239 1.10000000 -2.40000000
f 343 344 345
f 343 345 346

o W16_p0_1.10
usemtl W1_p0_1.10
v 0.34736239 1.10000000 -2.40000000
v 0.34736239 1.10000000 -6.50000000
v 0.33348624 1.20000000 -6.50000000
v 0.33348624 1.20000000 -2.40000000
f 347 348 349
f 347 349 350

o W16_p1_1.20
usemtl W1_p0_1.10
v 0.33348624 1.20000000 -2.40000000
v 0.33348624 1.20000000 -6.50000000
v 0.20860092 2.10000000 -6.50000000
v 0.20860092 2.10000000 -2.40000000
f 351 352 353
f 351 353 354

o W16_p1_2.10
usemtl W1_p1_2.10
v 0.20860092 2.10000000 -2.40000000
v 0.20860092 2.10000000 -6.50000000
v 0.16697248 2.40000000 -6.50000000
v 0.16697248 2.40000000 -2.40000000
f 355 356 357
f 355 357 358

o W16_p2_2.40
usemtl W1_p1_2.10
v 0.16697248 2.40000000 -2.40000000
v 0.16697248 2.40000000 -6.50000000
v 0.00045872 3.60000000 -6.50000000
v 0.00045872 3.60000000 -2.40000000
f 359 360 361
f 359 361 362

o W16-end_p0_0.00
usemtl W1_p0_0.00
v 0.50000000 0.00000000 -2.40000000
v 0.34736239 1.10000000 -2.40000000
v 0.50000000 1.10000000 -2.40000000
f 363 363 364
f 363 364 365

o W16-end_p0_1.10
usemtl W1_p0_1.10
v 0.50000000 1.10000000 -2.40000000
v 0.34736239 1.10000000 -2.40000000
v 0.33348624 1.20000000 -2.40000000
v 0.50000000 1.20000000 -2.40000000
f 366 367 368
f 366 368 369

o W16-end_p1_1.20
usemtl W1_p0_1.10
v 0.50000000 1.20000000 -2.40000000
v 0.33348624 1.20000000 -2.40000000
v 0.20860092 2.10000000 -2.40000000
v 0.50000000 2.10000000 -2.40000000
f 370 371 372
f 370 372 373

o W16-end_p1_2.10
usemtl W1_p1_2.10
v 0.50000000 2.10000000 -2.40000000
v 0.20860092 2.10000000 -2.40000000
v 0.16697248 2.40000000 -2.40000000
v 0.50000000 2.40000000 -2.40000000
f 374 375 376
f 374 376 377

o W16-end_p2_2.40
usemtl W1_p1_2.10
v 0.50000000 2.40000000 -2.40000000
v 0.16697248 2.40000000 -2.40000000
v 0.00045872 3.60000000 -2.40000000
v 0.50000000 3.60000000 -2.40000000
f 378 379 380
f 378 380 381

o W17_p0_0.00
usemtl W1_p0_0.00
v 0.50000000 0.00000000 -6.50000000
v 0.00000000 0.00000000 -6.50000000
v 0.00000000 1.10000000 -6.50000000
v 0.34736239 1.10000000 -6.50000000
f 382 383 384
f 382 384 385

o W17_p0_1.10
usemtl W1_p0_1.10
v 0.34736239 1.10000000 -6.50000000
v 0.00000000 1.10000000 -6.50000000
v 0.00000000 1.20000000 -6.50000000
v 0.33348624 1.20000000 -6.50000000
f 386 387 388
f 386 388 389

o W17_p1_1.20
usemtl W1_p0_1.10
v 0.33348624 1.20000000 -6.50000000
v 0.00000000 1.20000000 -6.50000000
v 0.00000000 2.10000000 -6.50000000
v 0.20860092 2.10000000 -6.50000000
f 390 391 392
f 390 392 393

o W17_p1_2.10
usemtl W1_p1_2.10
v 0.20860092 2.10000000 -6.50000000
v 0.00000000 2.10000000 -6.50000000
v 0.00000000 2.40000000 -6.50000000
v 0.16697248 2.40000000 -6.50000000
f 394 395 396
f 394 396 397

o W17_p2_2.40
usemtl W1_p1_2.10
v 0.16697248 2.40000000 -6.50000000
v 0.00000000 2.40000000 -6.50000000
v 0.00000000 3.60000000 -6.50000000
v 0.00045872 3.60000000 -6.50000000
f 398 399 400
f 398 400 401

o W18_p0_0.00
usemtl W1_p0_0.00
v 0.00000000 0.00000000 -6.50000000
v 0.00000000 0.00000000 -9.60000000
v 0.00000000 1.10000000 -9.60000000
v 0.00000000 1.10000000 -6.50000000
f 402 403 404
f 402 404 405

o W18_p0_1.10
usemtl W1_p0_1.10
v 0.00000000 1.10000000 -6.50000000
v 0.00000000 1.10000000 -9.60000000
v 0.00000000 1.20000000 -9.60000000
v 0.00000000 1.20000000 -6.50000000
f 406 407 408
f 406 408 409

o W18_p1_1.20
usemtl W1_p0_1.10
v 0.00000000 1.20000000 -6.50000000
v 0.00000000 1.20000000 -9.60000000
v 0.00000000 2.10000000 -9.60000000
v 0.00000000 2.10000000 -6.50000000
f 410 411 412
f 410 412 413

o W18_p1_2.10
usemtl W1_p1_2.10
v 0.00000000 2.10000000 -6.50000000
v 0.00000000 2.10000000 -9.60000000
v 0.00000000 2.40000000 -9.60000000
v 0.00000000 2.40000000 -6.50000000
f 414 415 416
f 414 416 417

o W18_p2_2.40
usemtl W1_p1_2.10
v 0.00000000 2.40000000 -6.50000000
v 0.00000000 2.40000000 -9.60000000
v 0.00000000 3.60000000 -9.60000000
v 0.00000000 3.60000000 -6.50000000
f 418 419 420
f 418 420 421

o W19_p0_2.40
usemtl W1_p1_2.10
v 5.30000000 2.40000000 -9.20000000
v 5.30000000 2.40000000 -5.10000000
v 5.30000000 3.60000000 -5.10000000
v 5.30000000 3.60000000 -9.20000000
f 422 423 424
f 422 424 425

o W20_p0_2.40
usemtl W1_p1_2.10
v 7.70000000 2.40000000 -5.10000000
v 7.70000000 2.40000000 -9.20000000
v 7.70000000 3.60000000 -9.20000000
v 7.70000000 3.60000000 -5.10000000
f 426 427 428
f 426 428 429

o W21_p0_0.00
usemtl W1_p0_0.00
v 7.70000000 0.00000000 -5.10000000
v 5.30000000 0.00000000 -5.10000000
v 5.30000000 1.10000000 -5.10000000
v 7.40525589 1.10000000 -5.10000000
f 430 431 432
f 430 432 433

o W21_p0_1.10
usemtl W1_p0_1.10
v 7.40525589 1.10000000 -5.10000000
v 5.30000000 1.10000000 -5.10000000
v 5.30000000 1.20000000 -5.10000000
v 7.37846097 1.20000000 -5.10000000
f 434 435 436
f 434 436 437

o W21_p1_1.20
usemtl W1_p0_1.10
v 7.37846097 1.20000000 -5.10000000
v 5.30000000 1.20000000 -5.10000000
v 5.30000000 2.10000000 -5.10000000
v 7.13730670 2.10000000 -5.10000000
f 438 439 440
f 438 440 441

o W21_p1_2.10
usemtl W1_p1_2.10
v 7.13730670 2.10000000 -5.10000000
v 5.30000000 2.10000000 -5.10000000
v 5.30000000 2.40000000 -5.10000000
v 7.05692194 2.40000000 -5.10000000
f 442 443 444
f 442 444 445

o W21_p2_2.40
usemtl W1_p1_2.10
v 7.05692194 2.40000000 -5.10000000
v 5.30000000 2.40000000 -5.10000000
v 5.30000000 3.60000000 -5.10000000
v 6.73538291 3.60000000 -5.10000000
f 446 447 448
f 446 448 449

o W22_p0_0.00
usemtl W1_p0_0.00
v 5.30000000 0.00000000 -5.10000000
v 5.30000000 0.00000000 -2.00000000
v 5.30000000 1.10000000 -2.00000000
v 5.30000000 1.10000000 -5.10000000
f 450 451 452
f 450 452 453

o W22_p0_1.10
usemtl W1_p0_1.10
v 5.30000000 1.10000000 -5.10000000
v 5.30000000 1.10000000 -2.00000000
v 5.30000000 1.20000000 -2.00000000
v 5.30000000 1.20000000 -5.10000000
f 454 455 456
f 454 456 457

o W22_p1_1.20
usemtl W1_p0_1.10
v 5.30000000 1.20000000 -5.10000000
v 5.30000000 1.20000000 -2.00000000
v 5.30000000 2.10000000 -2.00000000
v 5.30000000 2.10000000 -5.10000000
f 458 459 460
f 458 460 461

o W22_p1_2.10
usemtl W1_p1_2.10
v 5.30000000 2.10000000 -5.10000000
v 5.30000000 2.10000000 -2.00000000
v 5.30000000 2.40000000 -2.00000000
v 5.30000000 2.40000000 -5.10000000
f 462 463 464
f 462 464 465

o W22_p2_2.40
usemtl W1_p1_2.10
v 5.30000000 2.40000000 -5.10000000
v 5.30000000 2.40000000 -2.00000000
v 5.30000000 3.60000000 -2.00000000
v 5.30000000 3.60000000 -5.10000000
f 466 467 468
f 466 468 469

o W22b_p0_2.10
usemtl W1_p1_2.10
v 5.30000000 2.10000000 -2.00000000
v 5.30000000 2.10000000 0.00000000
v 5.30000000 3.60000000 0.00000000
v 5.30000000 3.60000000 -2.00000000
f 470 471 472
f 470 472 473

o W23_p0_0.00
usemtl W1_p0_0.00
v 7.70000000 0.00000000 -2.00000000
v 7.70000000 0.00000000 -5.10000000
v 7.40525589 1.10000000 -5.10000000
v 7.40525589 1.10000000 -2.00000000
f 474 475 476
f 474 476 477

o W23_p0_1.10
usemtl W1_p0_1.10
v 7.40525589 1.10000000 -2.00000000
v 7.40525589 1.10000000 -5.10000000
v 7.37846097 1.20000000 -5.10000000
v 7.37846097 1.20000000 -2.00000000
f 478 479 480
f 478 480 481

o W23_p1_1.20
usemtl W1_p0_1.10
v 7.37846097 1.20000000 -2.00000000
v 7.37846097 1.20000000 -5.10000000
v 7.13730670 2.10000000 -5.10000000
v 7.13730670 2.10000000 -2.00000000
f 482 483 484
f 482 484 485

o W23_p1_2.10
usemtl W1_p1_2.10
v 7.13730670 2.10000000 -2.00000000
v 7.13730670 2.10000000 -5.10000000
v 7.05692194 2.40000000 -5.10000000
v 7.05692194 2.40000000 -2.00000000
f 486 487 488
f 486 488 489

o W23_p2_2.40
usemtl W1_p1_2.10
v 7.05692194 2.40000000 -2.00000000
v 7.05692194 2.40000000 -5.10000000
v 6.73538291 3.60000000 -5.10000000
v 6.73538291 3.60000000 -2.00000000
f 490 491 492
f 490 492 493

o W24_p0_0.00
usemtl W1_p0_0.00
v 5.30000000 0.00000000 -2.00000000
v 7.70000000 0.00000000 -2.00000000
v 7.40525589 1.10000000 -2.00000000
v 5.30000000 1.10000000 -2.00000000
f 494 495 496
f 494 496 497

o W24_p0_1.10
usemtl W1_p0_1.10
v 5.30000000 1.10000000 -2.00000000
v 7.40525589 1.10000000 -2.00000000
v 7.37846097 1.20000000 -2.00000000
v 5.30000000 1.20000000 -2.00000000
f 498 499 500
f 498 500 501

o W24_p1_1.20
usemtl W1_p0_1.10
v 5.30000000 1.20000000 -2.00000000
v 7.37846097 1.20000000 -2.00000000
v 7.13730670 2.10000000 -2.00000000
v 5.30000000 2.10000000 -2.00000000
f 502 503 504
f 502 504 505

o W24_p1_2.10
usemtl W1_p1_2.10
v 5.30000000 2.10000000 -2.00000000
v 7.13730670 2.10000000 -2.00000000
v 7.05692194 2.40000000 -2.00000000
v 5.30000000 2.40000000 -2.00000000
f 506 507 508
f 506 508 509

o W24_p2_2.40
usemtl W1_p1_2.10
v 5.30000000 2.40000000 -2.00000000
v 7.05692194 2.40000000 -2.00000000
v 6.73538291 3.60000000 -2.00000000
v 5.30000000 3.60000000 -2.00000000
f 510 511 512
f 510 512 513

o mats
usemtl mats
v 0.00000000 -0.30000000 0.00000000
v 0.00000000 0.00000000 0.00000000
v 0.00000000 -0.30000000 -9.60000000
v 0.00000000 0.00000000 -9.60000000
v 12.60000000 -0.30000000 0.00000000
v 12.60000000 0.00000000 0.00000000
v 12.60000000 -0.30000000 -9.60000000
v 12.60000000 0.00000000 -9.60000000
f 515 517 514
f 518 515 514
f 514 517 516
f 516 518 514
f 515 521 517
f 519 515 518
f 519 521 515
f 517 521 516
f 520 518 516
f 516 521 520
f 520 519 518
f 521 519 520

o block_bridge
usemtl block_bridge
v 5.31000000 2.41000000 -5.10000000
v 5.31000000 3.59000000 -5.10000000
v 5.31000000 2.41000000 -9.19000000
v 5.31000000 3.59000000 -9.19000000
v 7.69000000 2.41000000 -5.10000000
v 7.69000000 3.59000000 -5.10000000
v 7.69000000 2.41000000 -9.19000000
v 7.69000000 3.59000000 -9.19000000
f 523 525 522
f 526 523 522
f 522 525 524
f 524 526 522
f 523 529 525
f 527 523 526
f 527 529 523
f 525 529 524
f 528 526 524
f 524 529 528
f 528 527 526
f 529 527 528

o block_cave-arch
usemtl block_bridge
v 5.31000000 2.11000000 0.00000000
v 5.31000000 3.59000000 0.00000000
v 5.31000000 2.11000000 -1.99000000
v 5.31000000 3.59000000 -1.99000000
v 5.60000000 2.11000000 0.00000000
v 5.60000000 3.59000000 0.00000000
v 5.60000000 2.11000000 -1.99000000
v 5.60000000 3.59000000 -1.99000000
f 531 533 530
f 534 531 530
f 530 533 532
f 532 534 530
f 531 537 533
f 535 531 534
f 535 537 531
f 533 537 532
f 536 534 532
f 532 537 536
f 536 535 534
f 537 535 536

o block_box-top
usemtl block_bridge
v 5.30000000 3.57500000 -2.00000000
v 5.30000000 3.59500000 -2.00000000
v 5.30000000 3.57500000 -5.10000000
v 5.30000000 3.59500000 -5.10000000
v 6.73000000 3.57500000 -2.00000000
v 6.73000000 3.59500000 -2.00000000
v 6.73000000 3.57500000 -5.10000000
v 6.73000000 3.59500000 -5.10000000
f 539 541 538
f 542 539 538
f 538 541 540
f 540 542 538
f 539 545 541
f 543 539 542
f 543 545 539
f 541 545 540
f 544 542 540
f 540 545 544
f 544 543 542
f 545 543 544

